<?xml version="1.0" standalone="no"?>
<!DOCTYPE svg PUBLIC "-//W3C//DTD SVG 20010904//EN"
 "http://www.w3.org/TR/2001/REC-SVG-20010904/DTD/svg10.dtd">
<svg version="1.0" xmlns="http://www.w3.org/2000/svg"
 width="1024.000000pt" height="1024.000000pt" viewBox="0 0 1024.000000 1024.000000"
 preserveAspectRatio="xMidYMid meet">

<g transform="translate(0.000000,1024.000000) scale(0.100000,-0.100000)"
fill="#000000" stroke="none">
<path d="M0 5120 l0 -5120 5120 0 5120 0 0 5120 0 5120 -5120 0 -5120 0 0
-5120z m3372 773 l208 -207 0 -408 0 -407 -52 -51 -53 -50 -3 404 -2 403 -156
6 c-231 8 -237 14 -244 252 l-5 160 -380 5 c-209 3 -370 6 -358 8 21 2 22 4
11 30 -7 15 -18 35 -26 45 -14 16 7 17 418 17 l434 0 208 -207z m-504 -331 c3
-18 -1 -22 -22 -22 -19 0 -26 5 -26 18 0 39 43 43 48 4z m-309 -16 c30 -36 -9
-104 -46 -80 -17 11 -36 71 -27 86 9 14 61 9 73 -6z m1896 -31 c86 -43 118
-93 123 -190 5 -89 -18 -146 -78 -198 l-39 -33 68 -106 69 -106 -66 -7 c-76
-8 -66 -16 -150 119 l-53 86 -75 0 -74 0 0 -84 c0 -115 0 -116 -71 -116 l-59
0 0 336 0 336 173 -3 c168 -4 174 -5 232 -34z m-1645 11 c0 -2 -8 -10 -17 -17
-16 -13 -17 -12 -4 4 13 16 21 21 21 13z m5128 -78 l3 -68 64 0 65 0 0 -50 0
-50 -65 0 -65 0 0 -134 c0 -112 3 -137 17 -151 16 -17 58 -17 94 -1 12 5 19 0
27 -21 5 -15 13 -36 17 -45 5 -13 -2 -23 -27 -38 -45 -27 -128 -27 -178 1 -60
34 -70 67 -70 239 l0 150 -40 0 -40 0 0 50 0 50 40 0 40 0 0 64 c0 72 3 75 75
73 l40 -2 3 -67z m-2913 -77 c87 -40 134 -117 135 -218 l0 -63 -186 0 -185 0
7 -22 c24 -82 142 -115 231 -64 l41 24 34 -35 33 -35 -34 -28 c-102 -86 -266
-77 -363 19 -130 130 -87 352 82 425 49 21 156 20 205 -3z m608 9 c4 0 7 -16
7 -36 0 -37 -37 -90 -196 -281 l-65 -78 133 -5 133 -5 0 -50 0 -50 -185 0
c-102 0 -198 2 -215 5 -29 6 -30 8 -27 50 3 30 13 54 30 75 119 140 222 265
222 269 0 3 -55 7 -122 8 l-123 3 -3 39 c-6 69 -14 66 205 61 109 -2 201 -5
206 -5z m217 -146 c0 -125 3 -163 17 -191 35 -75 141 -77 190 -4 22 32 23 44
23 192 l0 159 48 0 c26 0 52 -4 58 -8 13 -8 19 -164 16 -374 l-2 -128 -54 0
c-49 0 -54 2 -60 25 l-6 25 -41 -27 c-56 -37 -149 -44 -205 -15 -92 47 -104
83 -104 317 l0 185 60 0 60 0 0 -156z m590 126 c0 -30 13 -40 26 -19 13 22 90
49 139 49 53 0 103 -23 135 -63 l18 -21 37 33 c48 42 74 51 141 51 59 0 96
-15 131 -52 46 -49 53 -85 53 -283 l0 -185 -59 0 -59 0 -4 168 c-3 192 -10
213 -77 233 -46 14 -83 0 -115 -44 -19 -26 -21 -42 -21 -190 l0 -162 -60 0
-60 0 -5 167 c-4 149 -7 170 -26 195 -42 56 -112 52 -158 -10 -19 -26 -21 -45
-24 -188 l-3 -159 -60 0 -59 0 0 255 0 255 55 0 c54 0 55 0 55 -30z m1105 19
c50 -14 100 -64 114 -114 6 -22 11 -118 11 -212 l0 -173 -60 0 c-53 0 -60 2
-60 20 0 11 -1 20 -2 20 -2 0 -25 -11 -52 -25 -137 -70 -295 6 -283 136 9 103
71 142 225 143 l103 1 -3 34 c-6 73 -120 102 -216 54 l-43 -21 -13 27 c-31 61
-30 67 21 89 27 11 57 22 68 25 38 9 150 7 190 -4z m955 -10 c89 -40 130 -104
138 -211 l5 -68 -187 0 c-172 0 -186 -1 -186 -18 0 -80 151 -123 234 -67 20
14 39 25 41 25 2 0 16 -16 32 -36 l27 -37 -37 -32 c-96 -83 -279 -69 -361 27
-61 71 -82 177 -54 272 15 51 99 137 148 153 59 18 150 15 200 -8z m-5548 -5
c-30 -20 -29 -59 2 -79 51 -34 103 39 56 77 -25 20 -19 24 11 8 13 -8 19 -21
19 -46 0 -28 -6 -38 -30 -52 -25 -14 -30 -23 -31 -57 0 -22 -5 -49 -10 -60 -6
-14 -8 -3 -6 40 2 52 -1 62 -20 78 -39 31 -27 107 16 107 11 0 9 -5 -7 -16z
m332 0 c20 -20 4 -55 -23 -51 -13 1 -59 -37 -133 -110 -109 -107 -113 -112
-113 -154 0 -38 -3 -45 -27 -53 -31 -11 -88 9 -88 31 0 7 -10 18 -22 23 -15 5
-17 9 -7 9 8 1 25 15 37 31 23 30 54 38 81 21 9 -6 31 9 76 53 34 33 87 85
118 114 32 29 57 62 57 72 0 10 6 21 13 23 6 3 13 6 14 6 1 1 9 -6 17 -15z
m-455 -96 c11 -31 4 -47 -25 -54 -27 -7 -52 9 -64 41 -11 29 -4 35 41 35 32 0
41 -4 48 -22z m18 -214 c-3 -3 -12 -4 -19 -1 -8 3 -5 6 6 6 11 1 17 -2 13 -5z
m309 -79 c14 -21 15 -31 6 -50 -10 -21 -19 -25 -54 -25 -38 0 -48 -6 -95 -52
-29 -28 -55 -49 -58 -46 -4 3 19 27 49 54 44 37 56 54 56 77 0 44 17 67 50 67
21 0 35 -8 46 -25z m524 -258 l0 -72 -260 -253 -259 -253 -130 133 -130 133
37 38 36 37 96 -95 96 -96 249 254 c138 139 253 251 258 249 4 -2 7 -36 7 -75z
m964 -46 c-1 -39 8 -52 21 -31 10 16 62 12 79 -6 18 -18 23 -144 6 -144 -5 0
-10 20 -10 44 0 69 -15 98 -47 94 -34 -4 -53 -38 -53 -95 0 -24 -4 -43 -10
-43 -6 0 -10 45 -10 116 0 88 3 115 13 111 7 -2 12 -21 11 -46z m561 19 c-5
-8 -11 -8 -17 -2 -6 6 -7 16 -3 22 5 8 11 8 17 2 6 -6 7 -16 3 -22z m-976 -12
c5 -13 25 -56 45 -97 20 -41 36 -78 36 -83 0 -19 -21 -6 -35 22 -14 28 -19 30
-71 30 -52 0 -56 -2 -65 -30 -11 -29 -29 -41 -29 -19 0 6 19 53 41 105 42 95
62 113 78 72z m139 -80 c-2 -70 -7 -103 -15 -106 -10 -3 -13 22 -13 102 0 89
3 106 15 106 13 0 15 -16 13 -102z m162 72 c0 -13 7 -20 20 -20 11 0 20 -4 20
-10 0 -5 -9 -10 -20 -10 -18 0 -20 -7 -20 -54 0 -57 12 -72 48 -59 15 6 15 5
3 -10 -16 -20 -42 -22 -59 -5 -7 7 -12 38 -12 70 0 45 -3 58 -15 58 -8 0 -15
4 -15 9 0 5 7 11 15 15 8 3 15 12 15 21 0 8 5 15 10 15 6 0 10 -9 10 -20z
m480 0 c0 -15 7 -20 25 -20 14 0 25 -4 25 -10 0 -5 -11 -10 -25 -10 -23 0 -25
-3 -25 -48 0 -50 13 -74 36 -65 8 3 14 0 14 -6 0 -18 -26 -24 -49 -11 -18 9
-21 20 -21 70 0 37 -5 60 -12 64 -10 5 -10 7 0 12 6 3 12 14 12 25 0 10 5 19
10 19 6 0 10 -9 10 -20z m371 -31 c3 -5 20 -2 37 6 25 13 36 14 54 4 13 -7 26
-17 30 -23 12 -17 9 -136 -2 -136 -6 0 -10 26 -10 58 0 62 -11 82 -45 82 -34
0 -45 -20 -45 -82 0 -45 -3 -58 -15 -58 -12 0 -15 13 -15 59 0 66 -15 87 -54
77 -26 -6 -36 -30 -36 -93 0 -24 -4 -43 -10 -43 -6 0 -10 33 -10 80 0 47 4 80
10 80 6 0 10 -4 10 -9 0 -6 12 -3 28 4 26 14 61 11 73 -6z m224 0 c3 6 20 11
37 11 72 0 104 -85 52 -137 -21 -21 -32 -25 -65 -20 -39 5 -39 5 -39 -29 0
-24 -5 -34 -15 -34 -12 0 -15 19 -15 108 0 112 6 135 26 107 8 -10 14 -12 19
-6z m-691 -5 c11 -11 16 -35 16 -80 0 -59 -9 -79 -25 -54 -4 6 -13 5 -25 -2
-27 -17 -74 1 -78 30 -5 33 14 51 60 58 29 5 38 11 36 23 -3 12 -15 16 -46 15
-40 -1 -50 5 -35 19 13 13 82 7 97 -9z m294 -61 c-2 -50 -7 -78 -15 -81 -10
-3 -13 17 -13 77 0 66 3 81 15 81 13 0 15 -13 13 -77z m572 65 c0 -9 3 -9 12
0 7 7 21 12 33 12 17 0 15 -4 -12 -26 -30 -23 -33 -30 -33 -80 0 -30 -4 -54
-10 -54 -6 0 -10 33 -10 80 0 47 4 80 10 80 6 0 10 -5 10 -12z m210 -8 c31
-31 36 -68 13 -98 -42 -56 -111 -51 -141 10 -14 30 -2 74 25 96 26 19 80 15
103 -8z m85 -42 l28 -63 28 63 c16 34 33 62 39 62 15 0 14 -4 -26 -86 -20 -41
-40 -74 -46 -72 -9 3 -68 133 -68 150 0 25 21 0 45 -54z m245 42 c11 -11 20
-31 20 -45 0 -24 -3 -25 -60 -25 -33 0 -60 -4 -60 -10 0 -20 46 -40 81 -34 32
5 33 5 15 -10 -48 -39 -126 1 -126 64 0 64 86 104 130 60z m150 6 c0 -11 -9
-13 -35 -9 -31 5 -35 3 -35 -15 0 -16 9 -24 32 -30 17 -4 37 -17 44 -28 32
-47 -51 -87 -102 -50 -25 19 -15 28 22 18 70 -19 86 13 22 43 -45 21 -58 46
-38 70 17 20 90 20 90 1z m165 -48 l28 -62 23 53 c13 30 24 57 24 62 0 5 7 9
16 9 9 0 14 -5 11 -12 -4 -7 -21 -49 -39 -94 -18 -45 -39 -88 -47 -97 -18 -22
-71 -23 -71 -1 0 11 6 15 19 11 12 -3 27 3 36 13 15 17 14 23 -14 88 -32 73
-37 92 -22 92 4 0 21 -28 36 -62z m254 36 c30 -38 28 -87 -5 -113 -55 -43
-134 -8 -134 59 0 72 96 109 139 54z m81 -28 c0 -73 25 -100 71 -76 15 9 19
22 19 70 0 47 3 60 15 60 12 0 15 -16 15 -80 0 -64 -3 -80 -15 -80 -8 0 -15 4
-15 9 0 5 -13 4 -29 -2 -23 -8 -34 -7 -54 6 -22 14 -26 25 -29 82 -2 47 0 65
10 65 8 0 12 -18 12 -54z m250 46 c0 -4 -10 -12 -22 -17 -20 -9 -23 -19 -26
-72 -4 -90 -22 -78 -22 15 l0 79 35 1 c19 1 35 -2 35 -6z m150 -4 c0 -9 3 -9
12 0 7 7 18 12 26 12 12 0 12 -3 2 -15 -7 -8 -18 -15 -25 -15 -18 0 -25 -23
-25 -81 0 -27 -4 -49 -10 -49 -6 0 -10 33 -10 80 0 64 3 80 15 80 8 0 15 -5
15 -12z m180 2 c19 -10 43 -64 33 -74 -4 -3 -33 -6 -65 -6 -62 0 -69 -7 -39
-34 15 -13 28 -16 57 -10 36 6 38 6 25 -9 -14 -17 -56 -22 -86 -11 -25 10 -47
62 -40 95 11 49 68 74 115 49z m170 -4 c10 -13 5 -15 -31 -13 -34 2 -44 -2
-47 -15 -2 -12 5 -19 25 -23 42 -9 58 -20 61 -43 6 -39 -63 -66 -109 -41 -28
15 -14 30 18 18 14 -5 34 -7 45 -3 29 9 17 37 -18 45 -17 3 -36 9 -42 13 -17
10 -15 42 4 60 19 20 78 21 94 2z m70 -46 c0 -68 18 -88 64 -70 24 9 26 14 26
70 0 41 4 60 13 60 9 0 12 -21 11 -75 -2 -77 -9 -100 -23 -76 -6 9 -11 10 -15
2 -8 -12 -55 -15 -73 -3 -32 20 -48 152 -18 152 12 0 15 -13 15 -60z m190 48
c0 -9 3 -9 12 0 16 16 70 16 86 0 9 -9 15 -9 24 0 17 17 74 15 92 -4 18 -18
23 -144 6 -144 -5 0 -10 23 -10 51 0 61 -13 89 -43 89 -36 0 -47 -19 -47 -82
0 -45 -3 -58 -15 -58 -12 0 -15 13 -15 58 0 78 -29 104 -72 65 -13 -12 -18
-30 -18 -70 0 -29 -4 -53 -10 -53 -6 0 -10 33 -10 80 0 47 4 80 10 80 6 0 10
-5 10 -12z m394 -9 c15 -12 26 -30 26 -45 0 -23 -3 -24 -67 -24 l-68 0 28 -27
c25 -25 29 -26 59 -15 38 14 51 6 24 -14 -78 -57 -175 66 -100 125 15 12 37
21 49 21 12 0 34 -9 49 -21z m-4794 -362 c0 -75 -4 -119 -12 -129 -10 -13 -37
-17 -130 -20 -65 -2 -118 -1 -118 2 0 15 98 100 123 105 22 6 27 13 27 36 0
22 12 41 48 74 26 25 50 45 55 45 4 0 7 -51 7 -113z"/>
<path d="M3170 5816 c0 -80 4 -117 12 -122 20 -13 238 -11 238 2 0 11 -233
234 -244 234 -3 0 -6 -51 -6 -114z"/>
<path d="M4180 5310 l0 -120 93 0 c119 0 156 17 176 78 17 56 0 107 -48 139
-29 20 -47 23 -127 23 l-94 0 0 -120z"/>
<path d="M4829 5251 c-22 -21 -39 -48 -39 -60 0 -20 4 -21 130 -21 142 0 145
1 110 57 -24 41 -67 63 -121 63 -35 0 -48 -6 -80 -39z"/>
<path d="M7374 5086 c-63 -28 -49 -108 21 -122 46 -8 77 0 114 32 24 20 31 34
31 63 l0 37 -67 2 c-40 1 -81 -4 -99 -12z"/>
<path d="M8322 5270 c-32 -19 -66 -76 -56 -92 3 -5 61 -8 130 -8 118 0 124 1
124 20 0 11 -15 37 -33 56 -43 47 -113 57 -165 24z"/>
<path d="M2926 5089 c-32 -26 -33 -39 -1 -69 21 -20 30 -22 53 -14 33 12 42
56 16 85 -22 24 -35 24 -68 -2z"/>
<path d="M4185 4624 c-21 -51 -20 -54 24 -54 l39 0 -17 45 c-9 25 -19 45 -23
45 -4 0 -15 -16 -23 -36z"/>
<path d="M5602 4618 c-22 -22 -15 -76 13 -94 23 -15 27 -15 50 0 46 30 25 106
-29 106 -12 0 -27 -5 -34 -12z"/>
<path d="M4845 4556 c-22 -16 -14 -46 13 -46 23 0 42 19 42 42 0 22 -28 24
-55 4z"/>
<path d="M5897 4612 c-23 -25 -21 -58 3 -82 24 -24 38 -25 68 -4 42 29 18 104
-35 104 -11 0 -27 -8 -36 -18z"/>
<path d="M6232 4618 c-26 -26 -13 -38 38 -38 54 0 61 7 32 33 -22 20 -53 22
-70 5z"/>
<path d="M6793 4618 c-35 -45 -12 -107 39 -108 40 0 66 78 36 108 -16 16 -63
15 -75 0z"/>
<path d="M7472 4618 c-25 -25 -13 -38 33 -38 30 0 45 4 45 13 0 19 -21 37 -45
37 -12 0 -26 -5 -33 -12z"/>
<path d="M8286 4614 c-27 -26 -18 -34 39 -34 30 0 55 4 55 9 0 18 -31 41 -55
41 -13 0 -31 -7 -39 -16z"/>
</g>
</svg>
